<svg xmlns="http://www.w3.org/2000/svg" width="15.519" height="30" viewBox="0 0 15.519 30"><path d="M-183.048,444.626h-3.788a1.269,1.269,0,0,1-1.268-1.267V431.9a.089.089,0,0,0-.028-.066.149.149,0,0,0-.066-.027l-2.808.031a1.238,1.238,0,0,1-.906-.367,1.261,1.261,0,0,1-.376-.9V426.7a1.27,1.27,0,0,1,1.268-1.268h2.752a.087.087,0,0,0,.068-.03.089.089,0,0,0,.025-.071c-.358-4.231.493-7.267,2.529-9.026,2.627-2.267,6.4-1.694,7.9-1.342a1.264,1.264,0,0,1,.978,1.235v3.348a1.269,1.269,0,0,1-1.268,1.268h-3.857a.093.093,0,0,0-.093.093v4.432a.093.093,0,0,0,.093.093h3.5a1.272,1.272,0,0,1,.948.426,1.271,1.271,0,0,1,.311.992l-.457,3.834a1.268,1.268,0,0,1-1.259,1.118h-2.832a.093.093,0,0,0-.093.093v11.467A1.269,1.269,0,0,1-183.048,444.626Zm-5.149-13.994a1.261,1.261,0,0,1,.892.367,1.261,1.261,0,0,1,.376.9v11.459a.093.093,0,0,0,.093.093h3.788a.093.093,0,0,0,.093-.093V431.892a1.269,1.269,0,0,1,1.268-1.267h2.832a.1.1,0,0,0,.093-.083l.456-3.834a.092.092,0,0,0-.022-.073.094.094,0,0,0-.07-.031h-3.5a1.269,1.269,0,0,1-1.267-1.268V420.9a1.269,1.269,0,0,1,1.267-1.268h3.857a.094.094,0,0,0,.094-.093V416.2a.093.093,0,0,0-.072-.091c-1.325-.311-4.646-.828-6.863,1.087-1.736,1.5-2.451,4.2-2.127,8.038a1.269,1.269,0,0,1-.33.965,1.271,1.271,0,0,1-.933.41h-2.752a.093.093,0,0,0-.093.093v3.873a.089.089,0,0,0,.028.066.113.113,0,0,0,.066.027l2.808-.031Z" transform="translate(192.288 -414.626)" fill="#fff"/></svg>