<svg xmlns="http://www.w3.org/2000/svg" width="30" height="30" viewBox="0 0 30 30"><path d="M-319.679,347.513a.582.582,0,0,1-.27-.066c-.6-.311-14.723-7.765-14.723-20.422,0-7.021,4.4-9.512,8.178-9.512a8.725,8.725,0,0,1,5.059,1.582,5.96,5.96,0,0,1,1.76,1.969c1.21-2.239,4.1-3.551,6.825-3.551,3.772,0,8.178,2.491,8.178,9.512,0,12.658-14.136,20.111-14.738,20.422A.581.581,0,0,1-319.679,347.513Zm-6.815-28.826c-3.386,0-7,2.19-7,8.338,0,11.021,11.864,18.135,13.818,19.231,1.955-1.1,13.833-8.221,13.833-19.231,0-6.148-3.618-8.338-7-8.338-3,0-6.235,1.795-6.235,4.695a.587.587,0,0,1-.587.588.588.588,0,0,1-.588-.588,4.152,4.152,0,0,0-1.868-3.339A7.529,7.529,0,0,0-326.494,318.687Z" transform="translate(334.672 -317.513)" fill="#fff"/></svg>