<svg xmlns="http://www.w3.org/2000/svg" width="30" height="30" viewBox="0 0 30 30"><g transform="translate(287.977 -414.626)"><path d="M-263.851,444.626H-282.1a5.879,5.879,0,0,1-5.873-5.873V420.5a5.88,5.88,0,0,1,5.873-5.874h18.253a5.881,5.881,0,0,1,5.874,5.874v18.253A5.88,5.88,0,0,1-263.851,444.626ZM-282.1,415.8a4.7,4.7,0,0,0-4.7,4.7v18.253a4.7,4.7,0,0,0,4.7,4.7h18.253a4.7,4.7,0,0,0,4.7-4.7V420.5a4.7,4.7,0,0,0-4.7-4.7Z" fill="#fff"/><path d="M-272.977,437.006a7.387,7.387,0,0,1-7.38-7.379,7.388,7.388,0,0,1,7.38-7.38,7.387,7.387,0,0,1,7.379,7.38A7.387,7.387,0,0,1-272.977,437.006Zm0-13.585a6.213,6.213,0,0,0-6.206,6.206,6.213,6.213,0,0,0,6.206,6.2,6.213,6.213,0,0,0,6.2-6.2A6.213,6.213,0,0,0-272.977,423.421Z" fill="#fff"/><path d="M-263.876,421.6a1.016,1.016,0,0,1-1.02,1.01,1.007,1.007,0,0,1-1.01-1.01,1.016,1.016,0,0,1,1.01-1.02A1.024,1.024,0,0,1-263.876,421.6Z" fill="#fff"/></g></svg>