<svg xmlns="http://www.w3.org/2000/svg" width="32.884" height="30" viewBox="0 0 32.884 30"><g transform="translate(159.216 -317.512)"><path d="M-151.11,347.512a7.744,7.744,0,0,1-8.006-5.919,2.728,2.728,0,0,1,1.49-3.212l5.132-2.38a3.148,3.148,0,0,1,3.955,1.145c.134.208.275.424.418.644a2.043,2.043,0,0,0,2.392.809,17.287,17.287,0,0,0,9.346-8.115,1.415,1.415,0,0,0-.043-1.4c-.292-.474-.743-1.2-1.237-1.97a2.737,2.737,0,0,1,0-2.92,24.743,24.743,0,0,0,2.393-5.184,2.191,2.191,0,0,1,2.563-1.447c1.647.37,4.007,1.61,5.892,5.421.861,1.741.571,4.21-.839,7.14-3.274,6.8-12.163,15.26-20.178,17A15.463,15.463,0,0,1-151.11,347.512Zm-6.022-8.065a1.558,1.558,0,0,0-.852,1.833c.815,2.952,3.195,6.163,9.9,4.7,7.566-1.647,16.281-9.946,19.37-16.365,1.247-2.592,1.539-4.705.844-6.11-1.68-3.395-3.7-4.482-5.1-4.795a1.016,1.016,0,0,0-1.192.673,26.011,26.011,0,0,1-2.512,5.436,1.555,1.555,0,0,0,0,1.66c.5.778.954,1.511,1.248,1.989a2.6,2.6,0,0,1,.082,2.562,18.486,18.486,0,0,1-9.994,8.674,3.215,3.215,0,0,1-3.765-1.273c-.145-.222-.287-.441-.423-.652a1.97,1.97,0,0,0-2.474-.716Z" fill="#fff"/></g></svg>