<svg xmlns="http://www.w3.org/2000/svg" width="30" height="30" viewBox="0 0 30 30"><g transform="translate(246.223 -317.513)"><path d="M-227.339,339.78a7.532,7.532,0,0,1-1.606-.187c-3.8-.828-8.017-4.831-9.567-8.05a4.165,4.165,0,0,1-.387-3.585,4.477,4.477,0,0,1,2.944-2.679,1.331,1.331,0,0,1,1.555.878,11.379,11.379,0,0,0,1.077,2.334,1.584,1.584,0,0,1,0,1.691c-.217.338-.419.663-.569.907a.339.339,0,0,0-.01.336,7.692,7.692,0,0,0,4.157,3.61.63.63,0,0,0,.739-.251l.193-.3a1.776,1.776,0,0,1,2.23-.646l2.378,1.1a1.579,1.579,0,0,1,.861,1.858A3.878,3.878,0,0,1-227.339,339.78Zm-8.324-13.359a.14.14,0,0,0-.035,0,3.365,3.365,0,0,0-2.148,2.054,3.173,3.173,0,0,0,.393,2.555c1.4,2.908,5.341,6.667,8.758,7.411,2.866.625,3.875-.718,4.216-1.955a.409.409,0,0,0-.224-.48l-2.378-1.1a.6.6,0,0,0-.748.216l-.2.3a1.8,1.8,0,0,1-2.113.715,8.887,8.887,0,0,1-4.8-4.168,1.52,1.52,0,0,1,.048-1.5c.153-.249.36-.581.582-.926a.4.4,0,0,0,0-.432,12.341,12.341,0,0,1-1.2-2.587A.157.157,0,0,0-235.663,326.421Z" fill="#fff"/><path d="M-231.223,347.513a14.967,14.967,0,0,1-7.668-2.107l-6.95,2.089,1.725-7.313a14.974,14.974,0,0,1-2.107-7.669,15.017,15.017,0,0,1,15-15,15.017,15.017,0,0,1,15,15A15.017,15.017,0,0,1-231.223,347.513Zm-7.5-3.383.225.139a13.786,13.786,0,0,0,7.277,2.069A13.841,13.841,0,0,0-217.4,332.513a13.841,13.841,0,0,0-13.825-13.826,13.841,13.841,0,0,0-13.826,13.826,13.793,13.793,0,0,0,2.059,7.261l.128.207-1.369,5.8Z" fill="#fff"/></g></svg>